<?xml version="1.0" standalone="no"?>
<!DOCTYPE svg PUBLIC "-//W3C//DTD SVG 1.1//EN" "http://www.w3.org/Graphics/SVG/1.1/DTD/svg11.dtd" >
<svg xmlns="http://www.w3.org/2000/svg" xmlns:xlink="http://www.w3.org/1999/xlink" version="1.1">
<metadata></metadata>
<defs>
<font id="nexa-bolduploaded_file" horiz-adv-x="1302" >
<font-face units-per-em="2048" ascent="1448" descent="-600" />
<missing-glyph horiz-adv-x="509" />
<glyph horiz-adv-x="0" />
<glyph unicode="&#xd;" horiz-adv-x="681" />
<glyph unicode=" "  horiz-adv-x="509" />
<glyph unicode="&#x09;" horiz-adv-x="509" />
<glyph unicode="&#xa0;" horiz-adv-x="509" />
<glyph unicode="!" horiz-adv-x="557" d="M141 125q0 84 68 119q67 34 135 0q68 -35 68 -119t-68 -119q-68 -34 -135 0q-68 35 -68 119zM168 358v1080h221v-1080h-221z" />
<glyph unicode="&#x22;" horiz-adv-x="827" d="M143 889v543h195v-543h-195zM489 889v543h195v-543h-195z" />
<glyph unicode="#" horiz-adv-x="1398" d="M76 295v201h207l108 426h-170v194h217l78 318h229l-77 -318h270l80 318h227l-78 -318h156v-196h-205l-110 -424h170v-201h-215l-72 -295h-229l71 295h-272l-72 -295h-227l71 295h-157zM494 483h297l114 451h-297z" />
<glyph unicode="$" horiz-adv-x="1392" d="M72 289l194 102q45 -101 171 -159q125 -58 263 -58q161 0 271 55t110 183q0 55 -30 97q-31 43 -90 68q-52 22 -121 39q-60 15 -148 27q-84 10 -142 21q-69 13 -129 29q-75 20 -120 48q-43 27 -90 70q-44 41 -65 102q-21 62 -21 140q0 96 41 173q40 75 112 126 q69 49 153 76q84 28 175 38v185h219v-185q149 -18 251 -73q104 -56 171 -176l-184 -99q-44 74 -142 117q-99 43 -214 45q-144 0 -249 -57t-104 -168q0 -53 27 -89q28 -37 85 -59q58 -23 108 -33q41 -9 141 -22q104 -15 176 -30q75 -15 161 -48q88 -33 140 -78t90 -117 q37 -71 37 -167q0 -196 -145 -308t-351 -127v-204h-217v196q-177 15 -321 93q-147 79 -213 227z" />
<glyph unicode="%" horiz-adv-x="1521" d="M97 1074q-18 66 0 133q18 66 53 121q35 54 104 89q70 35 158 35q123 0 206 -64q85 -65 104 -156t0 -182t-104 -156t-206 -65q-88 0 -158 35q-69 35 -104 89q-35 55 -53 121zM215 0l928 1438h203l-926 -1438h-205zM255 1189q-9 -48 1 -93q11 -48 53 -80q43 -33 105 -33 t102 33q41 33 50 80q9 48 -1 93q-10 46 -52 79q-41 32 -103 32q-63 0 -104 -32q-42 -33 -51 -79zM823 297q0 81 34 149q35 70 109 116t177 46q124 0 207 -64t103 -156q19 -91 0 -182q-20 -92 -103 -156t-207 -64q-103 0 -177 46q-75 46 -109 115q-34 68 -34 150zM986 345 q-9 -48 1 -93q11 -48 53 -80q44 -33 105 -33t102 33q41 34 50 79q9 48 -1 93q-11 48 -52 80q-42 33 -103 33q-62 0 -104 -33t-51 -79z" />
<glyph unicode="&#x26;" horiz-adv-x="1439" d="M109 422q0 100 67 188t170 123q-93 38 -146 121q-55 86 -55 180q2 203 155 311q152 107 374 107q133 0 241 -32q107 -32 187 -124t80 -237h-215q0 198 -299 198q-157 0 -229 -66t-70 -157q0 -76 53 -126q51 -48 117 -67q63 -18 129 -18h655v-182h-121v-233 q0 -191 141 -191v-221q-211 -7 -262 186q-133 -205 -428 -205q-235 0 -390 116q-154 115 -154 329zM334 420q0 -114 92 -174t238 -60q63 0 136 19q67 17 128 71q59 52 59 132v233h-332q-152 0 -237 -68q-84 -67 -84 -153z" />
<glyph unicode="'" horiz-adv-x="475" d="M141 891v543h193v-543h-193z" />
<glyph unicode="(" horiz-adv-x="708" d="M88 627q-4 274 118 528q122 252 355 408l107 -146q-177 -136 -267 -334q-93 -203 -94 -428q0 -489 361 -764l-115 -157q-221 148 -341 387q-119 239 -124 506z" />
<glyph unicode=")" horiz-adv-x="706" d="M43 1436l109 145q234 -156 355 -407q122 -253 116 -527q-5 -269 -123 -509q-119 -241 -342 -386l-111 160q360 276 356 762q0 226 -92 428q-91 199 -268 334z" />
<glyph unicode="*" horiz-adv-x="815" d="M100 1178l50 161l182 -67l-8 186h165l-16 -188l195 69l45 -161l-191 -41l135 -156l-133 -98l-116 172l-119 -172l-133 98l131 156z" />
<glyph unicode="+" horiz-adv-x="1026" d="M90 610v197h316v315h210v-315h318v-197h-318v-319h-210v319h-316z" />
<glyph unicode="," horiz-adv-x="503" d="M121 100q0 47 26 76q28 31 66 38q39 8 77 0q37 -7 64 -40t27 -80q0 -8 -1 -13q-3 -13 -4 -18q-4 -14 -7 -22q-5 -12 -12 -36q-8 -26 -16 -47q-11 -30 -24 -67q-5 -16 -14 -45t-14 -43h-127l45 195q-86 17 -86 102z" />
<glyph unicode="-" horiz-adv-x="1011" d="M133 498v190h746v-190h-746z" />
<glyph unicode="." horiz-adv-x="497" d="M119 113q0 81 65 114q66 33 130 0q65 -33 65 -114t-65 -116q-64 -34 -130 0q-65 34 -65 116z" />
<glyph unicode="/" horiz-adv-x="1013" d="M51 -168l703 1733h209l-705 -1733h-207z" />
<glyph unicode="0" horiz-adv-x="1433" d="M117 592v250q0 150 51 271q52 123 136 197q85 74 193 115q111 41 220 40q115 -2 220 -41q108 -41 192 -114q86 -75 137 -197q51 -121 51 -271v-250q0 -150 -51 -271q-51 -122 -137 -197t-192 -115q-105 -39 -220 -41q-109 -1 -220 40q-106 40 -193 116q-84 74 -136 197 q-51 122 -51 271zM346 592q0 -132 55 -226q56 -96 138 -139t178 -43t178 43q80 42 137 139q55 94 55 226v250q0 111 -40 197q-40 87 -107 132q-69 47 -144 67q-81 21 -158 1q-79 -21 -144 -65q-66 -45 -107 -133t-41 -199v-250z" />
<glyph unicode="1" horiz-adv-x="890" d="M104 0v190h258v963l-245 -70v201l473 150v-1244h250v-190h-736z" />
<glyph unicode="2" horiz-adv-x="1382" d="M119 0v362q0 118 49 203q50 85 135 132q84 45 182 67q91 20 209 20q53 0 110 11q58 11 109 32q56 23 91 71q34 47 34 114q0 229 -329 241q-93 0 -166 -20q-74 -20 -131 -74q-56 -53 -58 -133h-229q7 118 61 205q52 85 139 132t180 68q94 21 204 21q86 0 160 -13 q81 -14 150 -46q75 -34 126 -81q54 -49 86 -124q33 -76 33 -172q0 -434 -568 -434q-54 0 -116 -10q-56 -9 -113 -30t-92 -68t-35 -112v-147h924v-215h-1145z" />
<glyph unicode="3" horiz-adv-x="1380" d="M100 406h232q0 -61 35 -107q35 -45 91 -69q52 -22 112 -33t112 -11q143 0 247 62q103 61 103 172q0 93 -79 157t-261 64h-227v188h213q140 0 237 54q96 55 97 149q0 86 -80 152q-78 65 -248 65q-82 0 -149 -16q-69 -17 -126 -66t-57 -123h-227q0 89 34 160q35 73 89 118 q57 48 130 77q80 32 150 43q76 12 158 12q230 0 390 -111q162 -112 163 -311q0 -105 -61 -187q-62 -83 -162 -110q124 -34 190 -117q66 -82 66 -196q0 -152 -88 -255t-217 -145t-287 -42q-149 0 -269 36q-124 37 -217 138q-94 102 -94 252z" />
<glyph unicode="4" horiz-adv-x="1355" d="M45 492l786 940h265v-934h170v-213h-170v-285h-228v285h-794zM301 498h567v667z" />
<glyph unicode="5" horiz-adv-x="1341" d="M111 422h229q0 -64 33 -110q32 -45 87 -68q54 -23 109 -33q53 -10 119 -10q142 0 238 66t96 190q1 118 -90 181q-90 62 -242 62h-547v732h1028v-215h-804v-304h323q256 0 408 -116q153 -117 153 -340q0 -219 -159 -345t-402 -126q-121 0 -218 22q-98 22 -182 71 q-83 48 -131 135t-48 208z" />
<glyph unicode="6" horiz-adv-x="1419" d="M141 451v557q0 147 87 252q86 104 215 151t280 47q159 0 285 -41q124 -40 205 -135q82 -95 83 -231h-225q-1 97 -102 153t-240 56q-146 0 -254 -64q-106 -63 -106 -186v-260q56 80 156 121q102 42 208 42q115 0 212 -25q100 -26 185 -78q89 -55 137 -145q50 -94 50 -219 q0 -151 -89 -261q-88 -109 -218 -157q-129 -48 -279 -48q-151 0 -281 48q-133 49 -220 158q-89 112 -89 265zM371 446q0 -129 104 -194q105 -66 256 -66q147 0 252 66q104 65 104 194q0 128 -102 197q-103 70 -252 70q-150 0 -258 -70q-106 -68 -104 -197z" />
<glyph unicode="7" horiz-adv-x="1150" d="M63 1214v220h1051l14 -131l-677 -1303h-265l633 1214h-756z" />
<glyph unicode="8" horiz-adv-x="1439" d="M109 418q1 101 68 192q66 90 177 129q-209 96 -209 295q0 139 83 239t210 143q129 44 281 44q244 0 413 -110q171 -111 171 -316q0 -91 -58 -170q-56 -76 -160 -116q111 -39 179 -134t69 -196q2 -230 -173 -340q-176 -111 -441 -111q-260 0 -436 111q-175 111 -174 340z M348 416q0 -106 108 -172t265 -66q159 0 266 66t107 172q-1 114 -113 174q-109 59 -260 59q-145 0 -257 -59q-115 -60 -116 -174zM379 1040q1 -103 105 -162t237 -59q134 0 238 58q103 57 104 163q2 105 -99 166q-103 62 -245 62q-147 0 -245 -65q-97 -64 -95 -163z" />
<glyph unicode="9" horiz-adv-x="1421" d="M104 991q0 150 90 261q89 110 218 158t278 48q152 0 281 -49q132 -50 220 -159q89 -110 89 -263v-557q0 -146 -86 -252q-84 -104 -214 -151q-129 -47 -280 -47q-160 0 -286 40t-211 136q-85 95 -86 231h231q1 -98 106 -154q103 -55 244 -55q128 0 242 69q115 70 115 181 v260q-52 -79 -157 -123q-102 -43 -210 -43q-111 0 -212 26q-100 26 -185 78q-88 54 -136 146q-51 97 -51 219zM332 991q0 -128 102 -197t254 -69q148 0 256 70q107 69 107 196q-1 129 -107 195q-103 65 -254 65t-254 -65q-104 -65 -104 -195z" />
<glyph unicode=":" horiz-adv-x="524" d="M133 113q0 79 65 112q64 33 129 0q64 -33 64 -112q0 -80 -64 -113q-65 -33 -129 0q-65 33 -65 113zM133 711q0 81 65 114q64 33 129 0q64 -33 64 -114q0 -80 -64 -113q-65 -33 -129 0q-65 33 -65 113z" />
<glyph unicode=";" horiz-adv-x="536" d="M137 100q0 44 27 75q27 32 64 39q38 8 76 0t65 -39q26 -30 26 -81q0 -21 -90 -291h-129l45 195q-84 18 -84 102zM141 711q0 81 65 114q64 33 129 0q64 -33 64 -114q0 -80 -64 -113q-65 -33 -129 0q-65 33 -65 113z" />
<glyph unicode="&#x3c;" horiz-adv-x="794" d="M78 625v43l463 444l135 -145l-340 -322l342 -319l-137 -148z" />
<glyph unicode="=" horiz-adv-x="1153" d="M143 317v195h867v-195h-867zM143 766v197h867v-197h-867z" />
<glyph unicode="&#x3e;" horiz-adv-x="794" d="M115 315l344 330l-342 330l137 137l461 -444v-43l-461 -447z" />
<glyph unicode="?" horiz-adv-x="1241" d="M70 1012q0 215 157 324q158 110 389 110q235 0 394 -106q157 -104 155 -324q0 -83 -24 -146q-23 -60 -72 -103q-45 -39 -87 -64q-35 -21 -100 -50q-63 -28 -83 -39q-71 -34 -96 -82q-25 -49 -25 -151l-227 2q0 135 34 219q35 86 83 124q51 40 132 73q18 8 55 23 q25 10 55 25q24 12 45 26q28 19 41 36t24 46q10 26 10 63q0 227 -318 227q-122 0 -220 -60q-97 -60 -99 -173h-223zM422 133q0 89 72 127q72 37 143 0q72 -37 72 -127q0 -87 -72 -125q-71 -37 -143 0q-72 38 -72 125z" />
<glyph unicode="@" horiz-adv-x="1871" d="M96 530q0 250 117 441q116 189 307 287t422 98q379 0 614 -209q234 -208 234 -602q0 -241 -97 -377q-98 -137 -284 -137q-61 0 -107 46q-47 47 -47 132q-39 -89 -136 -138q-100 -51 -187 -51q-221 0 -372 145q-150 144 -150 361q0 222 150 367q149 145 370 145 q93 0 185 -50q91 -50 132 -126l13 123l165 -20v-717q0 -49 33 -49q78 0 115 99q37 98 37 247q0 635 -668 635q-275 0 -468 -178q-191 -176 -191 -472q0 -164 54 -288q55 -126 148 -197q92 -70 207 -107q112 -36 242 -36q171 0 297 75l84 -143q-169 -102 -385 -102 q-167 0 -317 50q-147 49 -264 146q-115 95 -184 252q-69 156 -69 350zM614 528q0 -130 87 -225q87 -94 233 -94q150 0 232 94q83 95 83 234q0 134 -82 223q-83 90 -233 90q-146 0 -233 -93t-87 -229z" />
<glyph unicode="A" horiz-adv-x="1572" d="M18 0l644 1434h249l643 -1434h-243l-137 301h-777l-135 -301h-244zM483 510h607l-304 682z" />
<glyph unicode="B" horiz-adv-x="1466" d="M180 0v1434h658q216 0 352 -103q135 -102 135 -307q0 -202 -199 -285q119 -35 182 -134q62 -97 62 -195q0 -150 -77 -245q-78 -96 -190 -130q-116 -35 -265 -35h-658zM408 213h430q120 0 211 46q92 47 92 153q0 107 -94 165t-207 58h-432v-422zM408 840h432q125 0 192 47 q66 47 66 133q0 80 -70 144q-69 63 -190 63h-430v-387z" />
<glyph unicode="C" horiz-adv-x="1439" d="M92 707q0 144 47 277q46 131 137 240q90 108 239 171t333 63q307 0 524 -217l-153 -147q-150 147 -371 147q-256 0 -393 -158q-136 -158 -136 -371q0 -218 136 -373q133 -153 393 -153q102 0 205 41q101 40 176 115l157 -158q-214 -213 -538 -213q-188 0 -336 62 q-149 62 -238 166q-90 105 -136 233t-46 275z" />
<glyph unicode="D" horiz-adv-x="1536" d="M180 0v1434h543q175 0 316 -60q142 -60 226 -161q85 -102 130 -224q46 -124 47 -260v-24q0 -126 -39 -243q-45 -130 -128 -233q-85 -104 -228 -167q-142 -62 -324 -62h-543zM408 221h315q246 0 371 151q120 144 120 343v16q-5 130 -53 234q-49 106 -163 178 q-112 71 -275 71h-315v-993z" />
<glyph unicode="E" horiz-adv-x="1353" d="M180 0v1434h1053v-224h-823v-387h790v-213h-790v-385h829v-225h-1059z" />
<glyph unicode="F" horiz-adv-x="1282" d="M180 0v1432h1014v-224h-784v-436h745v-213h-745v-559h-230z" />
<glyph unicode="G" horiz-adv-x="1521" d="M92 702q0 326 201 546t553 220q312 0 530 -217l-143 -147q-73 73 -179 114q-101 39 -208 39q-243 0 -387 -159q-142 -156 -142 -389v-7q0 -215 134 -366q133 -150 395 -150q199 0 350 127v291h-399v205h612v-588q-228 -250 -563 -250q-188 0 -339 61q-148 60 -237 164 q-88 103 -133 231t-45 275z" />
<glyph unicode="H" horiz-adv-x="1574" d="M180 0v1434h230v-625h757v625h228v-1434h-228v596h-757v-596h-230z" />
<glyph unicode="I" horiz-adv-x="587" d="M180 0v1434h228v-1434h-228z" />
<glyph unicode="J" horiz-adv-x="1443" d="M57 582h226q0 -190 100 -291q101 -103 287 -103q180 0 283 112q102 111 102 294v627h-461v213h690v-840q0 -276 -167 -449q-166 -172 -447 -172q-274 0 -443 162q-170 162 -170 447z" />
<glyph unicode="K" horiz-adv-x="1327" d="M180 0v1434h230v-619l583 619h285v-9l-657 -684l714 -727v-14h-286l-639 653v-653h-230z" />
<glyph unicode="L" horiz-adv-x="1202" d="M180 0v1434h230v-1221h755v-213h-985z" />
<glyph unicode="M" horiz-adv-x="1837" d="M180 -2v1434h266l474 -672l471 672h266v-1434h-230v1100l-487 -678h-49l-481 678v-1100h-230z" />
<glyph unicode="N" horiz-adv-x="1579" d="M180 0v1434h176l813 -1020v1020h230v-1434h-174l-813 1012v-1012h-232z" />
<glyph unicode="O" horiz-adv-x="1650" d="M92 709q0 327 207 539t530 212q348 -1 539 -220q191 -218 191 -529q0 -147 -47 -280q-46 -131 -133 -236q-88 -106 -230 -165q-146 -61 -324 -61q-179 0 -323 63q-145 64 -231 167q-87 105 -133 234t-46 276zM319 707q1 -97 32 -190q31 -94 89 -168q60 -77 159 -123 q98 -46 226 -46q251 0 379 151q127 149 127 376q0 138 -50 258q-49 119 -168 201q-120 84 -284 85q-242 0 -375 -151q-135 -153 -135 -393z" />
<glyph unicode="P" horiz-adv-x="1415" d="M180 0v1434q183 0 331 1t333 1q113 0 203 -34q92 -35 151 -91q58 -55 101 -132t52 -157q4 -41 4.5 -82.5t-4.5 -82.5q-9 -80 -51 -158q-40 -74 -101 -132t-152 -92q-93 -35 -203 -35h-434v-440h-230zM410 651h434q90 0 156 42q67 43 97 107q29 62 29 138t-29 138 q-30 64 -97 107q-66 42 -156 42h-434v-574z" />
<glyph unicode="Q" horiz-adv-x="1650" d="M90 721q0 147 46 276q48 135 134 237q89 105 232 168q142 62 323 62q182 0 323 -61q142 -61 229 -166q88 -106 132 -233q46 -130 47 -273v-15q0 -262 -141 -458l172 -170l-160 -162l-176 172q-172 -121 -426 -121q-182 0 -326 63q-146 64 -232 168q-87 105 -132 236 q-45 130 -45 277zM317 717q1 -213 136 -370q134 -157 372 -157q243 0 377 164q127 156 127 364v19q-1 99 -32 191q-30 91 -88 165q-58 75 -157 118q-100 44 -227 44q-166 0 -284 -79q-120 -80 -172 -200q-52 -115 -52 -249v-10z" />
<glyph unicode="R" horiz-adv-x="1476" d="M180 0v1436q185 0 334 -1t334 -1q238 0 372 -139t134 -330q0 -168 -96 -294q-94 -124 -293 -153l428 -477l24 -41h-268l-436 496h-303v-496h-230zM410 705h436q136 0 205 73q69 74 69 183q0 105 -69 185q-69 79 -203 79h-438v-520z" />
<glyph unicode="S" horiz-adv-x="1351" d="M63 293l173 115q140 -236 446 -236q94 0 172 21q79 21 134 76q56 56 56 141q0 108 -97 160q-98 53 -269 75q-94 11 -169 29q-68 16 -149 47q-77 30 -126 74q-48 44 -79 111q-32 70 -32 157q0 106 49 188q50 83 131 129q85 48 176 71q95 24 197 24q382 0 534 -242 l-174 -117q-51 74 -146 116q-96 43 -208 44q-149 0 -240 -58q-92 -59 -92 -159q0 -93 89 -137q90 -44 259 -68q118 -17 217 -43q87 -23 179 -73q87 -47 134 -131q46 -82 46 -197q0 -153 -89 -256t-217 -145t-288 -42q-441 0 -617 326z" />
<glyph unicode="T" horiz-adv-x="1241" d="M35 1227v207h1171v-207h-469v-1227h-231v1227h-471z" />
<glyph unicode="U" horiz-adv-x="1540" d="M162 594v838h227v-838q0 -191 100 -297q101 -107 265 -113q14 -1 29 -1q155 0 257 101q111 110 111 310v838h227v-838q0 -304 -176 -468q-165 -154 -417 -154q-15 0 -31 1q-254 6 -423 168t-169 453z" />
<glyph unicode="V" horiz-adv-x="1476" d="M23 1434h258l456 -1166l459 1166h256l-594 -1440h-240z" />
<glyph unicode="W" horiz-adv-x="2199" d="M33 1434h256l364 -1104l371 1104h147l379 -1104l357 1104h256l-512 -1436h-203l-191 506l-157 481l-158 -483l-188 -504h-201z" />
<glyph unicode="X" horiz-adv-x="1337" d="M18 0v6l504 721l-483 696v11h252l379 -555l377 555h251v-11l-485 -696l506 -721v-6h-260l-389 567l-391 -567h-261z" />
<glyph unicode="Y" horiz-adv-x="1404" d="M33 1423v11h272l395 -633l408 633h276v-11l-569 -835v-588h-229v588z" />
<glyph unicode="Z" horiz-adv-x="1247" d="M53 0v129l774 1094h-708v211h1046v-105l-788 -1110h788v-219h-1112z" />
<glyph unicode="[" horiz-adv-x="698" d="M164 -360v1814h463v-190h-248v-1432h248v-192h-463z" />
<glyph unicode="\" horiz-adv-x="1028" d="M51 1565h223l703 -1733h-221z" />
<glyph unicode="]" horiz-adv-x="700" d="M74 -166h248v1432h-248v190h463v-1814h-463v192z" />
<glyph unicode="^" horiz-adv-x="1275" d="M86 707v10l473 719h143l486 -717l-2 -12h-232l-323 495l-324 -495h-221z" />
<glyph unicode="_" horiz-adv-x="1230" d="M133 -18h965v-189h-965v189z" />
<glyph unicode="`" horiz-adv-x="479" d="M4 1430v8h254l152 -277v-10h-191z" />
<glyph unicode="a" d="M82 506q0 245 148 386q147 140 374 140q109 0 203 -49q95 -50 141 -133l6 160h205v-1010h-201l-10 164q-46 -91 -146 -141t-202 -50h-3q-225 0 -370 140q-145 141 -145 393zM293 506q0 -153 94 -244q95 -92 234 -92q90 0 160 37q73 39 107 96t53 130q9 35 9 70.5t-9 71.5 q-19 75 -53 132t-107 96q-70 37 -160 37q-140 0 -234 -91t-94 -243z" />
<glyph unicode="b" d="M143 0v1432h211v-580q46 83 151 132q103 48 204 48q224 0 368 -138t144 -388q0 -244 -146 -385t-370 -141q-240 0 -351 180l-12 -160h-199zM367 506q0 -146 93 -238q94 -92 230 -92q137 0 228 91q92 92 92 239q0 151 -91 239q-92 89 -229 89q-133 0 -229 -93 q-94 -91 -94 -235z" />
<glyph unicode="c" horiz-adv-x="1042" d="M82 504q0 252 151 391t381 139q215 0 365 -149l-135 -142q-93 91 -228 91q-139 0 -231 -92t-92 -238q0 -154 92 -240t229 -86q149 0 240 94l143 -141q-160 -158 -383 -158q-229 0 -381 140q-151 139 -151 391z" />
<glyph unicode="d" d="M82 506q0 250 142 388t370 138q100 0 204 -48t150 -132v580h211v-1432h-198l-13 160q-111 -180 -350 -180q-226 0 -371 141t-145 385zM293 506q0 -150 91 -240q92 -90 228 -90q135 0 229 92q93 92 93 238q0 144 -93 235q-95 93 -229 93q-136 0 -228 -89q-91 -88 -91 -239 z" />
<glyph unicode="e" horiz-adv-x="1191" d="M82 510q0 232 147 379t383 147q256 0 396 -155q117 -129 117 -357q0 -47 -5 -98h-819q15 -116 103 -184q90 -70 227 -70q83 0 165 30q84 31 128 79l137 -134q-76 -82 -194 -127q-119 -45 -240 -45q-248 0 -397 146q-148 145 -148 389zM305 604h613q-7 116 -90 180 q-82 64 -210 64q-116 0 -203 -64q-86 -63 -110 -180z" />
<glyph unicode="f" horiz-adv-x="798" d="M57 811v186h193v74q0 183 101 283t263 100q129 0 248 -80l-82 -157q-83 53 -153 53q-76 0 -120 -50t-44 -149v-74h305v-186h-305v-811h-213v811h-193z" />
<glyph unicode="g" horiz-adv-x="1257" d="M82 532q0 240 162 374q163 134 385 134q170 0 272 -69l111 135l153 -119l-121 -141q123 -144 123 -314q0 -138 -67 -239q-68 -103 -201 -154q266 -90 266 -329q0 -196 -160 -304t-380 -108q-251 0 -395 120q-138 115 -138 312v16h211v-9q0 -106 91 -168q94 -64 231 -66 q128 0 225 53q96 52 96 154q0 104 -87 161q-89 58 -230 58q-248 0 -398 135q-149 134 -149 368zM295 532q0 -144 95 -227q94 -82 239 -82q141 0 234 87t93 222q0 144 -95 228t-232 84q-139 0 -237 -81q-97 -81 -97 -231z" />
<glyph unicode="h" horiz-adv-x="1226" d="M143 0v1434h211v-574q117 164 328 164q206 0 311 -128t105 -351v-545h-211v543q0 139 -68 212q-67 72 -186 72q-121 0 -200 -87q-79 -86 -79 -214v-526h-211z" />
<glyph unicode="i" horiz-adv-x="497" d="M119 1307q0 81 65 114q33 16 65.5 16.5t65.5 -16.5q66 -33 66 -114t-66 -116q-32 -17 -65 -17t-66 17q-65 34 -65 116zM143 0h211v1014h-211v-1014z" />
<glyph unicode="j" horiz-adv-x="497" d="M-178 -442q101 -64 213 -64q167 0 244 96q75 94 75 291v1133h-211v-1133q0 -98 -23 -141q-24 -46 -93 -47h-7q-58 0 -122 31zM119 1311q0 81 65 114q33 17 65.5 17t65.5 -17q66 -33 66 -114t-66 -116q-33 -17 -65.5 -17t-65.5 17q-65 34 -65 116z" />
<glyph unicode="k" horiz-adv-x="1052" d="M143 0v1432h213v-836l375 414h256v-13l-436 -462l496 -521v-14h-259l-432 467v-467h-213z" />
<glyph unicode="l" horiz-adv-x="514" d="M152 0v1432h210v-1432h-210z" />
<glyph unicode="m" horiz-adv-x="1857" d="M143 0v1012h197l14 -135q39 75 118 114q75 37 165 37q239 0 317 -203q111 201 346 201q207 0 318 -123t111 -344v-559h-213v559q0 118 -58 194q-56 74 -166 74q-112 0 -178 -78q-67 -79 -67 -194v-555h-213v555q0 115 -64 196q-62 78 -172 78q-109 0 -176 -79 q-68 -80 -68 -195v-555h-211z" />
<glyph unicode="n" horiz-adv-x="1249" d="M143 0v1012h193l12 -148q144 162 340 162q190 0 312 -129q122 -130 122 -354v-543h-213v541q0 134 -71 212t-201 78q-124 0 -203 -88q-80 -89 -80 -215v-528h-211z" />
<glyph unicode="o" horiz-adv-x="1204" d="M80 504q0 227 144 377q143 149 376 149q231 0 378 -150q146 -149 146 -376q0 -228 -144 -376t-380 -148q-233 0 -377 148q-143 147 -143 376zM291 504q0 -140 84 -234t225 -94t226 94t85 234q0 137 -88 234q-89 98 -223 98q-138 0 -224 -97q-85 -95 -85 -235z" />
<glyph unicode="p" d="M143 -469v1479h199l12 -164q55 88 153 136q97 48 204 48q224 -1 367 -149t143 -377q0 -231 -140 -379t-370 -148q-105 0 -204 42q-101 43 -153 128v-616h-211zM373 504q0 -138 90 -230t227 -92q140 0 230 90t90 232q0 144 -88 232q-89 89 -232 89t-230 -92 q-87 -91 -87 -229z" />
<glyph unicode="q" horiz-adv-x="1304" d="M82 504q0 231 142 377q143 148 370 149q108 0 202 -48q96 -49 152 -136l13 164h200v-1479h-211v616q-53 -86 -152 -128t-204 -42q-233 0 -373 148q-139 146 -139 379zM295 504q0 -141 89 -232q88 -90 228 -90t229 92t89 230t-87 229q-87 92 -231 92q-143 0 -230 -89 q-87 -88 -87 -232z" />
<glyph unicode="r" horiz-adv-x="901" d="M143 0v1010h197l14 -133q88 155 297 155q153 0 250 -86l-96 -184q-76 61 -178 61q-118 0 -195 -71q-78 -72 -78 -205v-547h-211z" />
<glyph unicode="s" horiz-adv-x="1021" d="M63 156l111 149q130 -144 354 -149q89 0 150 32q65 34 65 103q0 64 -56 92q-61 31 -177 43q-411 39 -412 303q0 153 128 230t292 77q238 0 389 -135l-119 -139q-101 94 -266 94h-6q-94 0 -150 -30q-59 -32 -59 -91q1 -108 219 -129q86 -8 149 -21q62 -13 133 -45 q69 -31 108 -96q38 -64 38 -155q-1 -144 -118 -232q-116 -88 -312 -88q-294 0 -461 187z" />
<glyph unicode="t" horiz-adv-x="833" d="M61 825v183h195v270l213 22v-292h295v-183h-297v-481q0 -166 145 -166q59 0 129 35l62 -180q-102 -45 -203 -45h-14q-156 0 -241 87q-89 92 -89 269v481h-195z" />
<glyph unicode="u" horiz-adv-x="1247" d="M127 467v543h211v-541q0 -130 73 -211q72 -80 201 -80q123 0 202 88t79 217v527h211v-1012h-191l-12 149q-144 -163 -348 -163q-189 0 -308 129q-118 128 -118 354z" />
<glyph unicode="v" horiz-adv-x="1163" d="M37 1012h233l136 -326l178 -469l159 428l152 367h231l-428 -1016h-231z" />
<glyph unicode="w" horiz-adv-x="1736" d="M49 1012h238l250 -795l241 795h183l241 -795l250 795h236l-355 -1016h-246l-118 336l-99 352l-100 -352l-119 -336h-245z" />
<glyph unicode="x" horiz-adv-x="1052" d="M25 0v6l362 508l-340 490v6h254l225 -361l224 361h256v-6l-340 -490l362 -508v-6h-254l-248 367l-247 -367h-254z" />
<glyph unicode="y" horiz-adv-x="1142" d="M45 1010h246l174 -478l100 -286l109 282l200 482h236l-637 -1479h-233l209 483z" />
<glyph unicode="z" horiz-adv-x="976" d="M61 0v86l523 731h-488v193h797v-99l-508 -704h512v-207h-836z" />
<glyph unicode="{" horiz-adv-x="704" d="M68 508v160q147 0 147 190v283q0 400 412 323v-161q-107 24 -150 -15t-43 -155v-275v-60q0 -14 -3 -53q-3 -38 -12 -53q-2 -4 -10.5 -17t-14.5 -23q-14 -24 -41 -40q-22 -13 -62 -24q37 -10 62 -25q26 -15 41 -39q4 -6 9.5 -14.5t9 -15t6.5 -10.5q9 -15 12 -54t3 -51v-60 v-282q0 -117 38 -149t155 -17v-166q-219 -37 -316 49q-96 85 -96 293v272q0 189 -147 189z" />
<glyph unicode="|" horiz-adv-x="540" d="M166 -190v1706h209v-1706h-209z" />
<glyph unicode="}" horiz-adv-x="704" d="M78 -137q117 -15 154 18q38 33 38 150v280v60q0 12 3 51q3 37 13 54q2 3 6.5 10.5l9 15t8.5 14.5q15 24 41 39q24 14 63 25q-42 12 -63 24q-27 16 -41 40l-24 40q-10 17 -13 53q-3 39 -3 53v60v274q0 117 -43 156q-42 38 -149 14v164q411 74 411 -323v-285 q0 -191 148 -191v-159q-148 0 -148 -189v-272q0 -207 -96 -293q-97 -86 -315 -49v166z" />
<glyph unicode="~" horiz-adv-x="1267" d="M129 547q45 135 140 196q95 60 208 39q78 -6 186 -69q111 -65 136 -74q124 -49 186 113l158 -54q-49 -149 -153 -218q-103 -69 -245 -13q-33 11 -135 74q-99 60 -149 65q-57 15 -107 -15t-80 -102z" />
<glyph unicode="&#xa1;" horiz-adv-x="528" d="M121 885q0 88 70 125q71 38 143 0t72 -125t-72 -125t-143 0q-70 37 -70 125zM152 -459h227v1077h-227v-1077z" />
<glyph unicode="&#xa2;" horiz-adv-x="1101" d="M104 481q0 207 114 342t310 174v144h199v-142q149 -24 260 -122l-117 -148q-100 86 -233 86q-140 0 -231 -88q-93 -90 -93 -246q0 -150 94 -242t230 -92q61 0 131 32t119 81l133 -154q-127 -121 -293 -145v-145h-199v147q-193 38 -308 169q-116 133 -116 349z" />
<glyph unicode="&#xa3;" horiz-adv-x="1343" d="M119 0v215q207 108 186 350h-186v193h149q-41 161 -41 235q0 218 140 340q139 121 374 121q221 0 349 -101q129 -102 137 -317h-205q-7 112 -82 167q-73 54 -199 54q-142 0 -213 -71t-71 -189q0 -66 37 -239h450v-193h-409q12 -96 -25 -197t-129 -161h854v-207h-1116z " />
<glyph unicode="&#xa4;" horiz-adv-x="1255" d="M135 315l121 119q-59 102 -57 218q1 113 63 214l-127 121l160 160l119 -121q94 49 215 49q115 0 211 -51l123 123l157 -160l-119 -119q58 -104 58 -219q0 -114 -58 -215l119 -119l-155 -155l-123 119q-94 -48 -215 -48q-113 0 -211 48l-121 -121zM387 651q0 -99 66 -171 t174 -72q113 0 176 72t63 171q0 101 -63 173q-64 73 -176 73q-108 0 -174 -74q-66 -73 -66 -172z" />
<glyph unicode="&#xa5;" horiz-adv-x="1472" d="M61 1423v11h267l401 -633l420 633h264v-11l-483 -710h231v-170h-317v-111h317v-168h-317v-264h-230v264h-317v168h317v111h-317v170h233z" />
<glyph unicode="&#xa6;" horiz-adv-x="555" d="M168 -184v751h219v-751h-219zM168 698v754h219v-754h-219z" />
<glyph unicode="&#xa7;" horiz-adv-x="1224" d="M111 160l139 143q134 -153 360 -149q110 0 190 35q83 36 85 98q6 104 -273 114q-123 1 -232 31q-104 28 -181 99t-72 176q1 63 51 126q49 62 133 89q-89 21 -132 83q-43 63 -42 138q4 88 52 152q48 65 126 99q76 34 159 49q81 15 167 15q299 0 436 -153l-139 -121 q-112 86 -303 90q-113 2 -192 -32q-82 -35 -83 -93q-2 -62 77 -90q81 -29 186 -35q92 -1 174 -17q74 -14 157 -49q78 -33 121 -97q43 -63 35 -154q-5 -71 -55 -123q-52 -53 -129 -74q89 -27 138 -91q50 -66 46 -136q-4 -88 -57 -154q-51 -65 -133 -100q-83 -36 -160 -52 t-158 -16q-151 0 -283 50q-129 49 -208 149zM346 713q-2 -52 53 -86q57 -36 136 -43t160 0q79 7 138 43q56 34 58 86q2 53 -53 90q-53 36 -136 47q-75 10 -160 2q-82 -8 -139 -45t-57 -94z" />
<glyph unicode="&#xa8;" horiz-adv-x="931" d="M109 1354q0 60 39 93q40 34 88 34q47 0 87 -34q39 -33 39 -93t-39 -93q-40 -34 -87 -34q-48 0 -88 34q-39 33 -39 93zM600 1354q0 59 40 93t88 34t88 -34t40 -93t-40 -93t-88 -34t-88 34t-40 93z" />
<glyph unicode="&#xa9;" horiz-adv-x="1689" d="M100 721q0 317 203 532t547 215t542 -214q197 -213 197 -533t-197 -533q-198 -215 -542 -215t-547 216q-203 217 -203 532zM289 721q0 -249 152 -413q153 -165 409 -165t403 164q148 165 148 414q0 251 -148 416q-147 163 -403 163q-257 0 -409 -164t-152 -415zM469 721 q0 -180 117 -288q116 -107 295 -107q163 0 293 127l-117 112q-79 -76 -176 -76q-101 0 -173 64q-71 63 -71 168q0 108 71 173q70 64 173 64q99 0 174 -71l116 108q-125 125 -290 125q-176 0 -294 -109t-118 -290z" />
<glyph unicode="&#xaa;" horiz-adv-x="1009" d="M125 1104q0 164 96 254t248 90q69 0 131 -30t92 -83l2 99h164v-662h-162l-4 105q-34 -59 -97 -91t-130 -32q-150 0 -245 92t-95 258zM166 465v174h688v-174h-688zM297 1104q0 -85 53 -138t133 -53q89 0 139 60q50 61 50 131t-50 131q-49 59 -139 59q-81 0 -133 -52 q-53 -53 -53 -138z" />
<glyph unicode="&#xab;" horiz-adv-x="1021" d="M78 608l284 451h228v-2l-283 -449l283 -454h-228zM426 608l285 451h225v-2l-281 -449l281 -454h-225z" />
<glyph unicode="&#xac;" horiz-adv-x="1081" d="M143 586v186h785v-450h-183v264h-602z" />
<glyph unicode="&#xad;" horiz-adv-x="1011" d="M133 498v190h746v-190h-746z" />
<glyph unicode="&#xae;" horiz-adv-x="1685" d="M102 717q0 316 199 532q198 215 541 215q344 0 542 -215q199 -216 199 -532q0 -317 -199 -533q-198 -215 -542 -215q-343 0 -541 215q-199 216 -199 533zM291 717q2 -252 148 -415q147 -163 403 -163t403 163q148 165 148 415q0 251 -148 416q-147 163 -403 163 q-255 0 -402 -163q-148 -164 -149 -416zM553 340h172v250h96l197 -250h186v37l-200 241q81 16 131 71q48 53 53 123q4 65 -21 134q-24 66 -94 110t-164 44h-356v-760zM725 737v207h184q68 0 95 -51q26 -49 -2 -103q-27 -53 -95 -53h-182z" />
<glyph unicode="&#xaf;" horiz-adv-x="872" d="M72 1257v181h710v-181h-710z" />
<glyph unicode="&#xb0;" horiz-adv-x="706" d="M121 1162q-15 72 2 146q17 73 83 123q67 50 163 50q118 0 187 -77q69 -76 69 -169q0 -92 -68 -169t-188 -77q-98 0 -166 50q-67 49 -82 123zM244 1234q0 -45 32 -80q33 -36 91 -36q57 0 89 36q31 35 31 80t-32 80q-33 36 -88 36q-58 0 -91 -36q-32 -35 -32 -80z" />
<glyph unicode="&#xb1;" horiz-adv-x="1093" d="M137 668v198h307v312h203v-312h309v-198h-309v-312h-203v312h-307zM141 53v195h811v-195h-811z" />
<glyph unicode="&#xb2;" horiz-adv-x="749" d="M78 827v189q0 84 45 133q43 47 108 66q57 16 127 28q63 11 109 35q45 24 45 74q0 96 -141 96q-129 0 -131 -90h-158q2 115 87 172q86 57 200 57q137 0 220 -57t83 -178q0 -92 -44 -144q-43 -51 -108 -66q-75 -18 -128 -24q-62 -7 -108 -31q-44 -23 -44 -71v-33h424v-156 h-586z" />
<glyph unicode="&#xb3;" horiz-adv-x="761" d="M68 1044h165q15 -86 142 -86q56 0 100 23q43 22 43 70q0 41 -34 69q-35 29 -107 29h-115v125h107q137 0 139 90q0 30 -33 59q-34 29 -104 29q-133 0 -148 -88h-141q0 110 86 167q84 56 205 56q119 0 207 -58t88 -167q0 -49 -28 -94q-26 -42 -75 -58q55 -16 88 -61t33 -94 q0 -128 -94 -185t-223 -57q-121 0 -210 57q-90 58 -91 174z" />
<glyph unicode="&#xb4;" horiz-adv-x="458" d="M14 1151v10l152 271h254v-9l-215 -272h-191z" />
<glyph unicode="&#xb5;" horiz-adv-x="1253" d="M158 -449v1463h223v-555q0 -173 133 -246q118 -63 240 -8q140 63 157 239l2 41v529h228v-1014h-205l-21 145q-55 -99 -169 -139q-115 -41 -223 -4q-110 38 -154 141v-592h-211z" />
<glyph unicode="&#xb6;" horiz-adv-x="1708" d="M68 899q1 216 146 376q144 159 400 159h1018v-213h-196v-1659h-228v1659h-422v-1659h-227v805q-233 18 -362 174t-129 358z" />
<glyph unicode="&#xb7;" horiz-adv-x="536" d="M131 569q0 64 43 101t94 37t94 -37q44 -38 44 -101q0 -62 -44 -100q-43 -37 -94 -37t-94 37t-43 100z" />
<glyph unicode="&#xb8;" horiz-adv-x="606" d="M61 -338l97 82q45 -66 139 -70q94 0 115 64q16 59 -46 89q-64 30 -135 -7l-47 39l60 188h155l-30 -106q123 -1 174 -72q48 -67 30 -158q-18 -88 -94 -136q-76 -47 -170 -46q-170 5 -248 133z" />
<glyph unicode="&#xb9;" horiz-adv-x="544" d="M74 827v140h129v428l-111 -27v137l270 68v-606h132v-140h-420z" />
<glyph unicode="&#xba;" horiz-adv-x="972" d="M129 1104q0 164 99 254t257 90q157 0 258 -90t101 -254q0 -166 -101 -258t-258 -92q-155 0 -256 92q-100 91 -100 258zM164 483v158h649v-158h-649zM301 1104q0 -85 53 -138t131 -53q81 0 134 53t53 138t-53 138q-52 52 -134 52q-80 0 -132 -52t-52 -138z" />
<glyph unicode="&#xbb;" horiz-adv-x="1019" d="M86 158l283 454l-283 449v2h227l285 -451l-285 -454h-227zM430 158l281 454l-281 449v2h225l285 -451l-285 -454h-225z" />
<glyph unicode="&#xbc;" horiz-adv-x="1585" d="M96 690v139h127v428l-108 -24v137l268 68v-609h133v-139h-420zM281 -2l784 1448h190l-786 -1448h-188zM852 274l350 471h209v-464h100v-142h-100v-139h-158v139h-393zM1022 281h231v311z" />
<glyph unicode="&#xbd;" horiz-adv-x="1646" d="M92 692v139h127v429l-108 -27v137l268 68v-607h133v-139h-420zM276 -4l783 1450h190l-784 -1450h-189zM975 -6v188q0 84 45 133q44 49 108 67q57 16 127 28q66 11 109 34q45 24 45 74q0 96 -139 96q-131 0 -131 -90h-160q2 115 87 172q87 58 200 58q138 0 220 -57 q83 -57 83 -179q0 -89 -44 -141q-43 -51 -107 -66q-59 -14 -126 -22q-62 -7 -107 -32q-44 -24 -44 -75v-39h415v-149h-581z" />
<glyph unicode="&#xbe;" horiz-adv-x="1638" d="M78 934h160q15 -84 135 -84q55 0 98 21t43 69q0 39 -33 68q-32 28 -104 28h-113v121h105q65 0 99 18q35 18 36 66q0 31 -33 59q-34 29 -102 29q-130 0 -142 -86h-137q0 107 84 162q83 55 197 55t200 -57q87 -58 88 -162q0 -49 -27 -90q-26 -39 -75 -55q52 -16 85 -61 q32 -44 32 -91q0 -123 -91 -178t-214 -55q-118 0 -203 55q-87 56 -88 168zM373 -8l784 1454h191l-787 -1454h-188zM924 274l350 471h209v-464h86v-142h-86v-139h-158v139h-393zM1094 281h231v311z" />
<glyph unicode="&#xbf;" horiz-adv-x="1230" d="M72 27q-2 -222 155 -326q156 -104 394 -104q231 0 389 108q157 108 159 324q-64 0 -116 1t-117 1q-1 -112 -96 -172t-217 -60q-316 0 -316 224q0 34 10 61q10 28 24 46q13 17 42 37q33 22 45 28q2 1 21 10t35 16q13 6 31.5 14.5t23.5 10.5q126 52 187 139q60 86 60 283 q-63 0 -113 1t-114 1v-47q-8 -131 -88 -183q-24 -16 -84 -42q-55 -23 -107 -51q-55 -29 -100 -65q-52 -41 -80 -106t-28 -149zM530 909q0 87 72 125q72 37 142 0q71 -38 71 -127q0 -88 -71 -124t-142 1q-72 37 -72 125z" />
<glyph unicode="&#xc0;" horiz-adv-x="1572" d="M18 0l644 1434h249l643 -1434h-243l-137 301h-777l-135 -301h-244zM475 1864v8h254l152 -277v-10h-191zM483 510h607l-304 682z" />
<glyph unicode="&#xc1;" horiz-adv-x="1572" d="M18 0h244l135 301h777l137 -301h243l-643 1434h-249zM483 510l303 682l304 -682h-607zM676 1591v11l151 270h254v-8l-215 -273h-190z" />
<glyph unicode="&#xc2;" horiz-adv-x="1572" d="M18 0h244l135 301h777l137 -301h243l-643 1434h-249zM430 1579v12l301 279h123l301 -279v-12h-219l-143 123l-144 -123h-219zM483 510l303 682l304 -682h-607z" />
<glyph unicode="&#xc3;" horiz-adv-x="1572" d="M18 0l644 1434h249l643 -1434h-243l-137 301h-777l-135 -301h-244zM465 1642q30 93 93 139q62 45 149 27q30 -7 73 -29q44 -23 66 -30q100 -34 127 53l135 -51q-16 -111 -89 -153q-72 -42 -155 -21q-30 6 -76 30q-40 21 -63 29q-92 33 -135 -61zM483 510h607l-304 682z " />
<glyph unicode="&#xc4;" horiz-adv-x="1572" d="M18 0h244l135 301h777l137 -301h243l-643 1434h-249zM412 1704q0 59 40 93t87 34t87 -34t40 -93t-40 -93t-87 -34t-87 34t-40 93zM483 510l303 682l304 -682h-607zM903 1704q0 59 40 93t88 34t88 -34t40 -93t-40 -93t-88 -34t-88 34t-40 93z" />
<glyph unicode="&#xc5;" horiz-adv-x="1572" d="M18 0l637 1423q-127 57 -127 205q0 110 77 173t181 63q103 0 181 -63q77 -62 77 -173q0 -145 -129 -205l639 -1423h-249l-136 301h-768l-135 -301h-248zM489 506h592l-155 356l-140 357l-143 -363zM678 1684q-30 -54 1 -108t105 -54q58 0 90 33q33 35 32 75q-2 41 -34 75 q-33 34 -88 34q-75 0 -106 -55z" />
<glyph unicode="&#xc6;" horiz-adv-x="1869" d="M-45 0l901 1434h893v-201h-643v-410h614v-200h-614v-416h653v-207h-862v344h-473l-211 -344h-258zM553 549h344v285l14 327h-2z" />
<glyph unicode="&#xc7;" horiz-adv-x="1441" d="M94 707q0 144 47 277q45 129 138 240q90 108 238 171q149 63 333 63q307 0 524 -217l-153 -147q-150 147 -371 147q-256 0 -393 -158q-136 -157 -135 -374t135 -370q133 -153 393 -153q102 0 205 41q101 40 176 115l158 -158q-207 -203 -508 -213l-27 -96q124 -1 175 -72 q50 -69 32 -157q-15 -69 -67 -113q-51 -44 -122 -59q-91 -21 -184 11q-91 31 -141 112l96 81q43 -65 138 -67t116 61q17 56 -44 86t-136 -2l-47 37l57 187q-207 24 -355 134q-146 109 -211 261q-66 154 -67 332z" />
<glyph unicode="&#xc8;" horiz-adv-x="1353" d="M180 0v1434h1053v-224h-823v-387h790v-213h-790v-385h829v-225h-1059zM467 1858v8h254l151 -277v-10h-190z" />
<glyph unicode="&#xc9;" horiz-adv-x="1353" d="M180 0h1059v225h-829v385h790v213h-790v387h823v224h-1053v-1434zM604 1581v10l152 271h254v-9l-215 -272h-191z" />
<glyph unicode="&#xca;" horiz-adv-x="1353" d="M180 0h1059v225h-829v385h790v213h-790v387h823v224h-1053v-1434zM367 1597v13l301 278h123l301 -278v-13h-220l-143 123l-143 -123h-219z" />
<glyph unicode="&#xcb;" horiz-adv-x="1353" d="M180 0h1059v225h-829v385h790v213h-790v387h823v224h-1053v-1434zM356 1708q0 59 40 93t87 34t87 -34t40 -93t-40 -93t-87 -34t-87 34t-40 93zM848 1708q0 59 40 93t88 34t88 -34t40 -93t-40 -93t-88 -34t-88 34t-40 93z" />
<glyph unicode="&#xcc;" horiz-adv-x="587" d="M-4 1853v9h254l151 -277v-10h-190zM180 0v1434h228v-1434h-228z" />
<glyph unicode="&#xcd;" horiz-adv-x="587" d="M180 0h228v1434h-228v-1434zM184 1567v10l152 270h254v-8l-215 -272h-191z" />
<glyph unicode="&#xce;" horiz-adv-x="587" d="M-33 1575v12l271 277h110l270 -277v-12h-196l-129 121l-127 -121h-199zM180 0h228v1434h-228v-1434z" />
<glyph unicode="&#xcf;" horiz-adv-x="587" d="M-37 1702q0 59 40 93t87 34t87 -34t40 -93t-40 -93t-87 -34t-87 34t-40 93zM180 0h228v1434h-228v-1434zM383 1702q0 59 40 93t88 34t88 -34t40 -93t-40 -93t-88 -34t-88 34t-40 93z" />
<glyph unicode="&#xd0;" horiz-adv-x="1552" d="M37 616v193h162v625h520q348 0 543 -200q194 -199 196 -493q0 -149 -45 -280q-46 -132 -133 -236q-89 -105 -232 -165q-144 -60 -329 -60h-520v616h-162zM422 213h297q252 0 382 145t130 377q-1 223 -134 357q-132 133 -378 133h-297v-416h291v-193h-291v-403z" />
<glyph unicode="&#xd1;" horiz-adv-x="1579" d="M180 0v1434h176l813 -1020v1020h230v-1434h-174l-813 1012v-1012h-232zM469 1651q30 91 93 138q63 46 149 28q26 -6 73 -30q44 -23 66 -30q100 -34 127 53l135 -51q-16 -110 -89 -152q-73 -43 -155 -22q-28 6 -75 30q-44 23 -64 30q-91 33 -135 -62z" />
<glyph unicode="&#xd2;" horiz-adv-x="1650" d="M92 709q0 327 207 539t530 212q348 -1 539 -220q191 -218 191 -529q0 -147 -47 -280q-46 -131 -133 -236q-88 -106 -230 -165q-146 -61 -324 -61q-179 0 -323 63q-145 64 -231 167q-87 105 -133 234t-46 276zM319 707q1 -97 32 -190q31 -94 89 -168q60 -77 159 -123 q98 -46 226 -46q251 0 379 151q127 149 127 376q0 138 -50 258q-49 119 -168 201q-120 84 -284 85q-242 0 -375 -151q-135 -153 -135 -393zM551 1874v8h254l151 -276v-11h-190z" />
<glyph unicode="&#xd3;" horiz-adv-x="1650" d="M92 709q0 -147 46 -276t133 -234q86 -103 231 -167q144 -63 323 -63q178 0 324 61q142 59 230 165q87 105 133 236q47 133 47 280q0 311 -191 529q-191 219 -539 220q-323 0 -530 -212t-207 -539zM319 707q0 240 135 393q133 151 375 151q164 -1 284 -85 q119 -82 168 -201q50 -120 50 -258q0 -227 -127 -376q-128 -151 -379 -151q-128 0 -226 46q-99 46 -159 123q-58 74 -89 168q-31 93 -32 190zM711 1595v11l151 270h254v-8l-215 -273h-190z" />
<glyph unicode="&#xd4;" horiz-adv-x="1650" d="M92 709q0 -147 46 -276t133 -234q86 -103 231 -167q144 -63 323 -63q178 0 324 61q142 59 230 165q87 105 133 236q47 133 47 280q0 311 -191 529q-191 219 -539 220q-323 0 -530 -212t-207 -539zM319 707q0 240 135 393q133 151 375 151q164 -1 284 -85 q119 -82 168 -201q50 -120 50 -258q0 -227 -127 -376q-128 -151 -379 -151q-128 0 -226 46q-99 46 -159 123q-58 74 -89 168q-31 93 -32 190zM467 1597v13l301 278h123l301 -278v-13h-219l-144 123l-143 -123h-219z" />
<glyph unicode="&#xd5;" horiz-adv-x="1650" d="M92 709q0 327 207 539t530 212q348 -1 539 -220q191 -218 191 -529q0 -147 -47 -280q-46 -131 -133 -236q-88 -106 -230 -165q-146 -61 -324 -61q-179 0 -323 63q-145 64 -231 167q-87 105 -133 234t-46 276zM319 707q1 -97 32 -190q31 -94 89 -168q60 -77 159 -123 q98 -46 226 -46q251 0 379 151q127 149 127 376q0 138 -50 258q-49 119 -168 201q-120 84 -284 85q-242 0 -375 -151q-135 -153 -135 -393zM508 1663q30 91 93 138q63 46 149 28q26 -6 73 -30q44 -23 66 -30q100 -34 127 54l135 -51q-16 -111 -89 -153q-73 -43 -155 -22 q-30 6 -76 30q-47 24 -63 30q-91 33 -135 -62z" />
<glyph unicode="&#xd6;" horiz-adv-x="1650" d="M92 709q0 -147 46 -276t133 -234q86 -103 231 -167q144 -63 323 -63q178 0 324 61q142 59 230 165q87 105 133 236q47 133 47 280q0 311 -191 529q-191 219 -539 220q-323 0 -530 -212t-207 -539zM319 707q0 240 135 393q133 151 375 151q164 -1 284 -85 q119 -82 168 -201q50 -120 50 -258q0 -227 -127 -376q-128 -151 -379 -151q-128 0 -226 46q-99 46 -159 123q-58 74 -89 168q-31 93 -32 190zM457 1720q0 60 40 94q39 33 87 33t87 -33q40 -34 40 -94q0 -59 -40 -93t-87 -34t-87 34t-40 93zM948 1720q0 60 40 94q39 33 88 33 t88 -33q40 -34 40 -94q0 -59 -40 -93t-88 -34t-88 34t-40 93z" />
<glyph unicode="&#xd7;" horiz-adv-x="937" d="M123 436l215 213l-215 213l141 137l209 -217l213 215l123 -120l-217 -222l229 -229l-133 -127l-225 227l-213 -217z" />
<glyph unicode="&#xd8;" horiz-adv-x="1646" d="M94 709q0 146 46 277q46 132 135 240q88 107 232 171q142 63 320 63q162 0 297 -55l95 162h223l-152 -258q133 -107 201 -263q70 -161 70 -335q-1 -141 -49 -274q-46 -130 -133 -236t-229 -169t-323 -63q-167 0 -301 54l-102 -175h-223l159 269q-130 102 -198 258 q-68 157 -68 334zM322 707q0 -248 155 -394l535 906q-83 32 -185 32q-251 0 -380 -162q-130 -162 -125 -382zM639 209q87 -29 188 -29q249 0 376 156q129 157 130 371q4 255 -157 411z" />
<glyph unicode="&#xd9;" horiz-adv-x="1538" d="M160 594v838h227v-838q0 -191 100 -297q101 -107 265 -113q174 -10 286 100q111 110 111 310v838h227v-838q0 -304 -176 -468q-175 -163 -448 -153q-254 6 -423 168t-169 453zM506 1864v8h254l151 -277v-10h-190z" />
<glyph unicode="&#xda;" horiz-adv-x="1538" d="M160 594q0 -291 169 -453t423 -168q273 -10 448 153q176 164 176 468v838h-227v-838q0 -200 -111 -310q-112 -110 -286 -100q-164 6 -265 113q-100 106 -100 297v838h-227v-838zM651 1593v11l152 270h254v-8l-215 -273h-191z" />
<glyph unicode="&#xdb;" horiz-adv-x="1538" d="M160 594q0 -291 169 -453t423 -168q273 -10 448 153q176 164 176 468v838h-227v-838q0 -200 -111 -310q-112 -110 -286 -100q-164 6 -265 113q-100 106 -100 297v838h-227v-838zM401 1597v13l301 278h123l301 -278v-13h-219l-143 123l-143 -123h-220z" />
<glyph unicode="&#xdc;" horiz-adv-x="1538" d="M160 594q0 -291 169 -453t423 -168q273 -10 448 153q176 164 176 468v838h-227v-838q0 -200 -111 -310q-112 -110 -286 -100q-164 6 -265 113q-100 106 -100 297v838h-227v-838zM397 1710q0 59 40 93t87 34t87 -34t40 -93t-40 -93t-87 -34t-87 34t-40 93zM889 1710 q0 59 40 93t88 34t88 -34t40 -93t-40 -93t-88 -34t-88 34t-40 93z" />
<glyph unicode="&#xdd;" horiz-adv-x="1404" d="M33 1423l553 -835v-588h229v588l569 835v11h-276l-408 -633l-395 633h-272v-11zM571 1587v10l152 271h254v-8l-215 -273h-191z" />
<glyph unicode="&#xde;" horiz-adv-x="1413" d="M178 0l2 1432h226v-238h438q122 0 222 -41q98 -40 161 -109q60 -66 95 -152q34 -84 34 -175t-34 -175q-35 -87 -94 -153q-60 -67 -161 -108q-102 -41 -223 -41h-436v-240h-230zM408 444h436q91 0 156 40q68 42 97 100t29 130t-29 130q-28 57 -97 99q-65 40 -156 40h-436 v-539z" />
<glyph unicode="&#xdf;" horiz-adv-x="1267" d="M143 0v1055q0 191 141 296t330 105q201 0 336 -101q137 -102 137 -292q0 -96 -59 -168q-60 -73 -162 -96q166 -37 244 -144t78 -233q0 -141 -60 -243t-156 -146q-99 -46 -222 -56t-256 31v195q210 -65 341 1q130 66 130 212q0 138 -105 208q-104 70 -248 70h-116v201h108 q102 0 180 39q79 39 80 129q1 104 -70 150q-73 47 -176 47q-106 0 -173 -47q-66 -47 -72 -128q-6 -60 -6 -120v-383q0 -155 1 -293t1 -289h-226z" />
<glyph unicode="&#xe0;" d="M82 506q0 245 148 386q147 140 374 140q109 0 203 -49q95 -50 141 -133l6 160h205v-1010h-201l-10 164q-46 -91 -146 -141t-202 -50q-227 -1 -373 140q-145 141 -145 393zM293 506q0 -153 94 -244q95 -92 234 -92q90 0 160 37q73 39 107 96t53 130q18 70 0 142 q-19 75 -53 132t-107 96q-70 37 -160 37q-140 0 -234 -91t-94 -243zM381 1444v8h254l151 -276v-11h-190z" />
<glyph unicode="&#xe1;" d="M82 506q0 -252 145 -393q146 -141 373 -140q102 0 202 50t146 141l10 -164h201v1010h-205l-6 -160q-46 83 -141 133q-94 49 -203 49q-227 0 -374 -140q-148 -141 -148 -386zM293 506q0 152 94 243t234 91q90 0 160 -37q73 -39 107 -96t53 -130q18 -71 0 -143 q-18 -73 -53 -131q-34 -57 -107 -96q-70 -37 -160 -37q-139 0 -234 92q-94 91 -94 244zM502 1161v10l151 271h254v-8l-215 -273h-190z" />
<glyph unicode="&#xe2;" d="M82 506q0 -252 145 -393q146 -141 373 -140q102 0 202 50t146 141l10 -164h201v1010h-205l-6 -160q-46 83 -141 133q-94 49 -203 49q-227 0 -374 -140q-148 -141 -148 -386zM293 506q0 152 94 243t234 91q90 0 160 -37q73 -39 107 -96t53 -130q18 -71 0 -143 q-18 -73 -53 -131q-34 -57 -107 -96q-70 -37 -160 -37q-139 0 -234 92q-94 91 -94 244zM307 1169v13l301 278h123l301 -278v-13h-219l-143 123l-144 -123h-219z" />
<glyph unicode="&#xe3;" d="M82 506q0 245 148 386q147 140 374 140q109 0 203 -49q95 -50 141 -133l6 160h205v-1010h-201l-10 164q-46 -91 -146 -141t-202 -50q-227 -1 -373 140q-145 141 -145 393zM293 506q0 -153 94 -244q95 -92 234 -92q90 0 160 37q73 39 107 96t53 130q18 70 0 142 q-19 75 -53 132t-107 96q-70 37 -160 37q-140 0 -234 -91t-94 -243zM344 1290q30 92 93 138t149 28q26 -6 73 -30q38 -20 66 -29q100 -34 127 53l135 -51q-16 -111 -89 -153q-72 -42 -155 -21q-32 7 -75 29q-44 23 -64 30q-92 33 -135 -61z" />
<glyph unicode="&#xe4;" d="M82 506q0 -252 145 -393q146 -141 373 -140q102 0 202 50t146 141l10 -164h201v1010h-205l-6 -160q-46 83 -141 133q-94 49 -203 49q-227 0 -374 -140q-148 -141 -148 -386zM293 506q0 152 94 243t234 91q90 0 160 -37q73 -39 107 -96t53 -130q18 -71 0 -143 q-18 -73 -53 -131q-34 -57 -107 -96q-70 -37 -160 -37q-139 0 -234 92q-94 91 -94 244zM303 1325q0 59 40 93t87 34t87 -34t40 -93t-40 -93t-87 -34t-87 34t-40 93zM795 1325q0 59 40 93t88 34t88 -34t40 -93t-40 -93t-88 -34t-88 34t-40 93z" />
<glyph unicode="&#xe5;" d="M82 506q0 245 148 386q147 140 374 140q109 0 203 -49q95 -50 141 -133l6 160h205v-1010h-201l-10 164q-46 -91 -146 -141t-202 -50q-227 -1 -373 140q-145 141 -145 393zM293 506q0 -153 94 -244q95 -92 234 -92q90 0 160 37q73 39 107 96t53 130q18 70 0 142 q-19 75 -53 132t-107 96q-70 37 -160 37q-140 0 -234 -91t-94 -243zM391 1343q0 104 74 164q73 60 180 60q106 0 184 -60t78 -164q0 -107 -74 -166q-76 -61 -186 -61q-108 0 -182 62t-74 165zM541 1294q30 -51 104 -51q79 0 109 51q31 52 -2 103t-107 51t-104 -51t0 -103z " />
<glyph unicode="&#xe6;" horiz-adv-x="2072" d="M82 506q0 245 148 386q147 140 376 140q109 0 203 -49q93 -49 143 -133l6 160h189v-148q125 174 364 174q251 0 392 -166t90 -444h-822q18 -119 111 -189q92 -69 217 -69q201 0 307 108l127 -129q-162 -172 -434 -172q-243 0 -354 170l-6 -145h-187l-2 160 q-46 -90 -149 -138q-104 -49 -201 -49q-229 0 -374 140q-144 139 -144 393zM295 506q0 -154 93 -245q92 -91 235 -91q93 0 164 37q74 39 110 96q35 56 54 130q18 70 0 142q-19 76 -54 132q-36 57 -110 96q-71 37 -164 37q-143 0 -235 -91q-93 -91 -93 -243zM1176 604h622 q0 117 -80 180q-81 64 -211 64q-120 0 -214 -65q-93 -64 -117 -179z" />
<glyph unicode="&#xe7;" horiz-adv-x="1048" d="M82 504q0 252 151 391t381 139q215 0 365 -149l-135 -142q-93 91 -228 91q-139 0 -231 -92t-92 -238q0 -154 92 -240t229 -86q149 0 240 94l143 -141q-158 -158 -368 -158l-23 -82q124 -1 174 -68q49 -66 31 -155q-24 -109 -124 -158q-99 -48 -212 -18q-112 30 -176 127 l94 82q47 -69 144 -77q95 -7 122 67q18 58 -52 86q-72 29 -138 -8l-47 36l55 185q-180 38 -287 170q-108 134 -108 344z" />
<glyph unicode="&#xe8;" horiz-adv-x="1191" d="M82 510q0 232 147 379t383 147q256 0 396 -155q141 -156 112 -455h-819q15 -116 103 -184q90 -70 227 -70q83 0 165 30q84 31 128 79l137 -134q-76 -82 -194 -127q-119 -45 -240 -45q-248 0 -397 146q-148 145 -148 389zM305 604h613q-7 116 -90 180q-82 64 -210 64 q-116 0 -203 -64q-86 -63 -110 -180zM360 1430v8h254l152 -277v-10h-191z" />
<glyph unicode="&#xe9;" horiz-adv-x="1191" d="M82 510q0 -244 148 -389q149 -146 397 -146q121 0 240 45q118 45 194 127l-137 134q-44 -48 -128 -79q-82 -30 -165 -30q-137 0 -227 70q-88 68 -103 184h819q29 299 -112 455q-140 155 -396 155q-236 0 -383 -147t-147 -379zM305 604q24 117 110 180q87 64 203 64 q128 0 210 -64q83 -64 90 -180h-613zM496 1159v10l151 271h254v-8l-215 -273h-190z" />
<glyph unicode="&#xea;" horiz-adv-x="1191" d="M82 510q0 -244 148 -389q149 -146 397 -146q121 0 240 45q118 45 194 127l-137 134q-44 -48 -128 -79q-82 -30 -165 -30q-137 0 -227 70q-88 68 -103 184h819q29 299 -112 455q-140 155 -396 155q-236 0 -383 -147t-147 -379zM264 1153v12l301 279h123l301 -279v-12h-219 l-143 123l-144 -123h-219zM305 604q24 117 110 180q87 64 203 64q128 0 210 -64q83 -64 90 -180h-613z" />
<glyph unicode="&#xeb;" horiz-adv-x="1191" d="M82 510q0 -244 148 -389q149 -146 397 -146q121 0 240 45q118 45 194 127l-137 134q-44 -48 -128 -79q-82 -30 -165 -30q-137 0 -227 70q-88 68 -103 184h819q29 299 -112 455q-140 155 -396 155q-236 0 -383 -147t-147 -379zM270 1319q0 59 40 93t87 34t87 -34t40 -93 t-40 -93t-87 -34t-87 34t-40 93zM305 604q24 117 110 180q87 64 203 64q128 0 210 -64q83 -64 90 -180h-613zM721 1319q0 59 40 93t88 34t88 -34t40 -93t-40 -93t-88 -34t-88 34t-40 93z" />
<glyph unicode="&#xec;" horiz-adv-x="507" d="M-14 1427v9h223l135 -275v-10h-188zM143 0v985h222v-985h-222z" />
<glyph unicode="&#xed;" horiz-adv-x="507" d="M131 1151v10l135 273h223v-9l-167 -274h-191zM143 0h222v985h-222v-985z" />
<glyph unicode="&#xee;" horiz-adv-x="507" d="M-68 1161v13l263 282h108l262 -282v-13h-192l-125 119l-125 -119h-191zM143 0h222v985h-222v-985z" />
<glyph unicode="&#xef;" horiz-adv-x="507" d="M-51 1325q0 59 40 93t87 34t87 -34t40 -93t-40 -93t-87 -34t-87 34t-40 93zM143 0h222v985h-222v-985zM324 1325q0 59 40 93t88 34t88 -34t40 -93t-40 -93t-88 -34t-88 34t-40 93z" />
<glyph unicode="&#xf0;" horiz-adv-x="1210" d="M82 487q0 187 114 328t320 168q211 22 330 -86q-24 73 -96 142q-74 71 -132 100l-69 -84l-107 69l60 78q-70 42 -178 58l41 174q147 -27 262 -80l90 112l108 -77l-80 -99q203 -157 290 -345q87 -189 87 -431q2 -239 -138 -386q-141 -148 -382 -148q-246 0 -383 150 q-137 151 -137 357zM299 489q0 -128 80 -223q79 -94 223 -94t223 94q80 95 80 223q0 129 -80 223q-79 93 -223 93t-223 -94q-80 -95 -80 -222z" />
<glyph unicode="&#xf1;" horiz-adv-x="1249" d="M143 0v1012h193l12 -148q144 162 340 162q190 0 312 -129q122 -130 122 -354v-543h-213v541q0 134 -71 212t-201 78q-124 0 -203 -88q-80 -89 -80 -215v-528h-211zM338 1288q27 90 84 135t135 27q26 -6 71 -29q41 -21 58 -28q91 -35 115 53l125 -51q-17 -111 -83 -152 q-67 -41 -141 -20q-28 7 -68 29q-42 23 -59 30q-84 33 -124 -61z" />
<glyph unicode="&#xf2;" horiz-adv-x="1204" d="M80 504q0 227 144 377q143 149 376 149q231 0 378 -150q146 -149 146 -376q0 -228 -144 -376t-380 -148q-233 0 -377 148q-143 147 -143 376zM291 504q0 -140 84 -234t225 -94t226 94t85 234q0 137 -88 234q-89 98 -223 98q-138 0 -224 -97q-85 -95 -85 -235zM319 1440v8 h254l152 -266v-11h-190z" />
<glyph unicode="&#xf3;" horiz-adv-x="1204" d="M80 504q0 -229 143 -376q144 -148 377 -148q236 0 380 148t144 376q0 227 -146 376q-147 150 -378 150q-233 0 -376 -149q-144 -150 -144 -377zM291 504q0 140 85 235q86 97 224 97q134 0 223 -98q88 -97 88 -234q0 -140 -85 -234t-226 -94t-225 94t-84 234zM487 1167v11 l150 268h252v-8l-213 -271h-189z" />
<glyph unicode="&#xf4;" horiz-adv-x="1204" d="M80 504q0 -229 143 -376q144 -148 377 -148q236 0 380 148t144 376q0 227 -146 376q-147 150 -378 150q-233 0 -376 -149q-144 -150 -144 -377zM242 1186v12l301 279h123l301 -279v-12h-219l-144 123l-143 -123h-219zM291 504q0 140 85 235q86 97 224 97q134 0 223 -98 q88 -97 88 -234q0 -140 -85 -234t-226 -94t-225 94t-84 234z" />
<glyph unicode="&#xf5;" horiz-adv-x="1204" d="M80 504q0 227 144 377q143 149 376 149q231 0 378 -150q146 -149 146 -376q0 -228 -144 -376t-380 -148q-233 0 -377 148q-143 147 -143 376zM291 504q0 -140 84 -234t225 -94t226 94t85 234q0 137 -88 234q-89 98 -223 98q-138 0 -224 -97q-85 -95 -85 -235zM299 1294 q29 91 87 136q57 44 138 26q25 -6 69 -29q40 -21 60 -28q90 -35 119 51l125 -49q-17 -108 -83 -149q-64 -39 -144 -21q-23 6 -68 29q-42 22 -61 28q-84 33 -125 -59z" />
<glyph unicode="&#xf6;" horiz-adv-x="1204" d="M80 504q0 -229 143 -376q144 -148 377 -148q236 0 380 148t144 376q0 227 -146 376q-147 150 -378 150q-233 0 -376 -149q-144 -150 -144 -377zM272 1325q0 59 40 93t87 34t87 -34t40 -93t-40 -93t-87 -34t-87 34t-40 93zM291 504q0 140 85 235q86 97 224 97 q134 0 223 -98q88 -97 88 -234q0 -140 -85 -234t-226 -94t-225 94t-84 234zM707 1325q0 60 39 93q40 34 89 34q48 0 88 -34t40 -93t-40 -93t-88 -34q-49 0 -89 34q-39 33 -39 93z" />
<glyph unicode="&#xf7;" horiz-adv-x="1130" d="M119 582h893v192h-893v-192zM440 301q0 80 65 113t128 0t63 -113q0 -59 -40 -93t-88 -34t-88 34t-40 93zM440 1030q0 59 40 93t88 34t88 -34t40 -93t-40 -93t-88 -34t-88 34t-40 93z" />
<glyph unicode="&#xf8;" horiz-adv-x="1204" d="M80 504q0 227 144 377q143 149 376 149q102 0 195 -35l75 129h203l-129 -217q180 -147 180 -403q0 -228 -144 -376t-380 -148q-100 0 -188 28l-80 -135h-203l131 221q-180 145 -180 410zM291 504q0 -137 80 -223l319 540q-46 15 -90 15q-138 0 -224 -97q-85 -95 -85 -235 zM518 186q29 -10 82 -10q141 0 226 94t85 234q0 126 -77 215z" />
<glyph unicode="&#xf9;" horiz-adv-x="1247" d="M127 467v543h211v-541q0 -130 73 -211q72 -80 201 -80q123 0 202 88t79 217v527h211v-1012h-191l-12 149q-144 -163 -348 -163q-189 0 -308 129q-118 128 -118 354zM356 1430v8h254l152 -277v-10h-191z" />
<glyph unicode="&#xfa;" horiz-adv-x="1247" d="M127 467q0 -226 118 -354q119 -129 308 -129q204 0 348 163l12 -149h191v1012h-211v-527q0 -129 -79 -217t-202 -88q-129 0 -201 80q-73 81 -73 211v541h-211v-543zM498 1151v10l151 271h254v-9l-215 -272h-190z" />
<glyph unicode="&#xfb;" horiz-adv-x="1247" d="M127 467q0 -226 118 -354q119 -129 308 -129q204 0 348 163l12 -149h191v1012h-211v-527q0 -129 -79 -217t-202 -88q-129 0 -201 80q-73 81 -73 211v541h-211v-543zM289 1176v10l291 268h118l291 -268v-10h-211l-139 116l-137 -116h-213z" />
<glyph unicode="&#xfc;" horiz-adv-x="1247" d="M127 467q0 -226 118 -354q119 -129 308 -129q204 0 348 163l12 -149h191v1012h-211v-527q0 -129 -79 -217t-202 -88q-129 0 -201 80q-73 81 -73 211v541h-211v-543zM264 1319q0 59 40 93t87 34t87 -34t40 -93t-40 -93t-87 -34t-87 34t-40 93zM756 1319q0 59 40 93t88 34 t88 -34t40 -93t-40 -93t-88 -34t-88 34t-40 93z" />
<glyph unicode="&#xfd;" horiz-adv-x="1142" d="M45 1010l404 -996l-209 -483h233l637 1479h-236l-200 -482l-109 -282l-100 286l-174 478h-246zM461 1167v11l141 256h240v-9l-203 -258h-178z" />
<glyph unicode="&#xfe;" horiz-adv-x="1304" d="M143 -422v1856h211l2 -586q50 83 151 133q98 49 206 49q223 -1 367 -139q143 -137 143 -387q0 -252 -143 -389q-144 -138 -369 -138q-101 0 -201 47q-98 46 -154 138v-584h-213zM375 504q0 -135 92 -229q91 -93 225 -93q137 0 228 86q90 86 90 236t-90 236 q-89 85 -228 85q-134 0 -225 -93q-92 -94 -92 -228z" />
<glyph unicode="&#xff;" horiz-adv-x="1142" d="M45 1010l404 -996l-209 -483h233l637 1479h-236l-200 -482l-109 -282l-100 286l-174 478h-246zM195 1327q0 79 62 111q63 33 126 0t63 -111q0 -59 -38 -93t-87 -34q-50 0 -88 34t-38 93zM682 1327q0 78 63 111t127 0q64 -34 64 -111q0 -59 -40 -93t-87 -34t-87 34t-40 93 z" />
<glyph unicode="&#x152;" horiz-adv-x="2064" d="M94 723q0 325 189 530t540 205q69 0 213 -24h910v-205h-701v-402h668v-204h-668v-416h709v-207h-920q-92 -27 -211 -27q-351 0 -540 212t-189 538zM324 719q0 -138 49 -255q49 -118 155 -200t254 -90q135 -12 252 27v1028q-87 37 -209 37q-240 0 -371 -155 q-130 -154 -130 -392z" />
<glyph unicode="&#x153;" horiz-adv-x="1988" d="M80 504q0 228 144 378t376 150q134 0 243 -60t167 -169q50 104 156 167q107 64 245 64q254 0 394 -155q141 -155 112 -453h-811q12 -115 98 -185q86 -69 223 -69q80 0 164 30q85 30 129 79l138 -134q-77 -85 -193 -128q-118 -44 -240 -44q-143 0 -256 61 q-110 59 -170 171q-133 -227 -399 -227q-233 0 -377 148q-143 147 -143 376zM291 504q0 -140 84 -234t225 -94t225 94t84 234q0 136 -87 234t-222 98q-138 0 -224 -97q-85 -95 -85 -235zM1104 604h610q-7 116 -88 180t-209 64q-117 0 -204 -64q-85 -63 -109 -180z" />
<glyph unicode="&#x178;" horiz-adv-x="1404" d="M33 1423l553 -835v-588h229v588l569 835v11h-276l-408 -633l-395 633h-272v-11zM340 1702q0 76 61 106q62 30 122 0q61 -30 61 -106t-61 -107q-60 -30 -122 0q-61 30 -61 107zM809 1702q0 76 60 106t122 0t62 -106q0 -77 -62 -107t-122 0t-60 107z" />
<glyph unicode="&#x2c6;" horiz-adv-x="862" d="M51 1165v13l301 278h123l301 -278v-13h-219l-143 123l-144 -123h-219z" />
<glyph unicode="&#x2dc;" horiz-adv-x="743" d="M57 1311q30 91 94 138q62 46 148 28q28 -6 74 -30t65 -30q100 -34 127 53l135 -51q-16 -110 -89 -152q-73 -43 -154 -22q-30 6 -76 30q-44 23 -64 30q-91 33 -135 -62z" />
<glyph unicode="&#x2000;" horiz-adv-x="944" />
<glyph unicode="&#x2001;" horiz-adv-x="1888" />
<glyph unicode="&#x2002;" horiz-adv-x="944" />
<glyph unicode="&#x2003;" horiz-adv-x="1888" />
<glyph unicode="&#x2004;" horiz-adv-x="629" />
<glyph unicode="&#x2005;" horiz-adv-x="472" />
<glyph unicode="&#x2006;" horiz-adv-x="314" />
<glyph unicode="&#x2007;" horiz-adv-x="314" />
<glyph unicode="&#x2008;" horiz-adv-x="236" />
<glyph unicode="&#x2009;" horiz-adv-x="377" />
<glyph unicode="&#x200a;" horiz-adv-x="104" />
<glyph unicode="&#x2010;" horiz-adv-x="1011" d="M133 498v190h746v-190h-746z" />
<glyph unicode="&#x2011;" horiz-adv-x="1011" d="M133 498v190h746v-190h-746z" />
<glyph unicode="&#x2012;" horiz-adv-x="1011" d="M133 498v190h746v-190h-746z" />
<glyph unicode="&#x2013;" horiz-adv-x="1220" d="M133 494v186h954v-186h-954z" />
<glyph unicode="&#x2014;" horiz-adv-x="1423" d="M133 494v188h1157v-188h-1157z" />
<glyph unicode="&#x2018;" horiz-adv-x="503" d="M96 1006l150 430h170l-97 -430h-223z" />
<glyph unicode="&#x2019;" horiz-adv-x="495" d="M106 1001l99 433h221l-150 -433h-170z" />
<glyph unicode="&#x201a;" horiz-adv-x="526" d="M68 -250l96 432h223l-149 -432h-170z" />
<glyph unicode="&#x201c;" horiz-adv-x="837" d="M102 999l152 433h170l-107 -433h-215zM442 999l136 433h170l-99 -433h-207z" />
<glyph unicode="&#x201d;" horiz-adv-x="811" d="M106 1006l99 428h207l-136 -428h-170zM432 1006l96 428h209l-135 -428h-170z" />
<glyph unicode="&#x201e;" horiz-adv-x="860" d="M68 -250l96 432h223l-149 -432h-170zM401 -250l97 432h223l-150 -432h-170z" />
<glyph unicode="&#x2022;" horiz-adv-x="804" d="M166 625q0 102 67 168q66 65 170 65q102 0 167 -65q67 -67 67 -168q0 -102 -67 -166t-167 -64q-101 0 -170 64q-67 63 -67 166z" />
<glyph unicode="&#x2026;" horiz-adv-x="1374" d="M119 113q0 81 65 114q66 33 130 0q65 -33 65 -114t-65 -116q-64 -34 -130 0q-65 34 -65 116zM557 113q0 81 66 114q65 33 131 0q65 -33 65 -114q0 -82 -65 -116q-66 -34 -131 0q-66 34 -66 116zM995 113q0 81 66 114t130 0t64 -114q0 -82 -64 -116t-130 0q-66 35 -66 116 z" />
<glyph unicode="&#x202f;" horiz-adv-x="377" />
<glyph unicode="&#x2039;" horiz-adv-x="675" d="M78 608l284 451h228v-2l-283 -449l283 -454h-228z" />
<glyph unicode="&#x203a;" horiz-adv-x="677" d="M88 156l281 454l-281 449v2h225l285 -451l-285 -454h-225z" />
<glyph unicode="&#x205f;" horiz-adv-x="472" />
<glyph unicode="&#x20ac;" horiz-adv-x="1255" d="M88 485v172h113v50q0 33 2 61h-115v174h141q60 233 236 375q175 141 467 141q108 0 217 -31l-70 -204q-63 18 -147 18q-179 0 -298 -80q-118 -79 -171 -219h489l-39 -174h-499q-2 -24 -2 -59q0 -32 2 -52h467l-35 -172h-387q107 -299 473 -299q90 0 186 35l64 -213 q-115 -37 -250 -37q-299 0 -475 138q-175 138 -232 376h-137z" />
<glyph unicode="&#x2122;" horiz-adv-x="1660" d="M127 1296v138h563v-138h-201v-454h-157v454h-205zM809 840v594h154l192 -246l197 246h151v-594h-162l7 354l-177 -219h-34l-174 227l6 -362h-160z" />
<glyph unicode="&#x25fc;" horiz-adv-x="1013" d="M0 0v1014h1014v-1014h-1014z" />
<glyph unicode="&#xfb01;" horiz-adv-x="1255" d="M57 813h187v-813h213v813h301v184h-301v74q0 99 44 149t120 50q56 0 120 -35l68 166q-101 53 -201 53q-162 0 -263 -100t-101 -283v-74h-187v-184zM879 1307q0 81 65 114q66 33 131 0q66 -33 66 -114t-66 -116q-66 -34 -131 0t-65 116zM903 0h213v1014h-213v-1014z" />
<glyph unicode="&#xfb02;" horiz-adv-x="1265" d="M57 813v184h185v74q0 183 101 283t263 100q72 0 139 -24l-30 -183q-51 23 -97 23q-75 0 -119 -50t-44 -149v-74h264v-184h-264v-813h-213v813h-185zM901 0v1436h213v-1436h-213z" />
</font>
</defs>
</svg>
