<svg width="185" height="29" viewBox="0 0 185 29" fill="none" xmlns="http://www.w3.org/2000/svg">
<path d="M13.604 28H1.29199V27.81C2.00133 27.3287 2.60933 26.1127 3.11599 24.162C3.62266 22.186 3.87599 19.6653 3.87599 16.6V12.61C3.87599 9.51935 3.62266 6.99868 3.11599 5.04801C2.60933 3.09734 2.00133 1.88134 1.29199 1.40001V1.21001C3.19199 1.21001 4.88933 1.17201 6.38399 1.09601C7.87866 1.02001 9.34799 0.804679 10.792 0.450012H11.02V16.6C11.02 19.6653 11.2733 22.186 11.78 24.162C12.2867 26.1127 12.8947 27.3287 13.604 27.81V28ZM23.104 28.38C20.596 28.38 18.7467 27.354 17.556 25.302C17.024 24.4407 16.568 23.554 16.188 22.642C15.808 21.73 15.39 20.9067 14.934 20.172C14.5033 19.4373 13.9207 18.9053 13.186 18.576V18.196C16.2007 15.5107 17.708 12.9267 17.708 10.444C17.708 10.0893 17.6827 9.73468 17.632 9.38001L17.974 9.00001C18.9873 8.74668 19.9627 8.62001 20.9 8.62001C23.6867 8.62001 25.1687 9.58268 25.346 11.508C25.346 13.028 23.9907 14.4213 21.28 15.688C19.532 16.4987 17.0493 17.3347 13.832 18.196H17.1C18.7467 18.196 20.064 18.4113 21.052 18.842C22.04 19.2473 22.8253 19.7667 23.408 20.4C23.9907 21.0333 24.4847 21.6793 24.89 22.338C25.3967 23.1233 25.954 23.8073 26.562 24.39C27.17 24.9473 28.0693 25.226 29.26 25.226L29.45 25.53C28.918 26.4673 28.044 27.1767 26.828 27.658C25.612 28.1393 24.3707 28.38 23.104 28.38Z" fill="white"/>
<path d="M37.2097 15.954C36.4497 15.954 35.6644 15.8527 34.8537 15.65C34.043 15.422 33.359 15.0547 32.8017 14.548C32.2697 14.0413 32.0037 13.3573 32.0037 12.496C32.0037 11.508 32.3584 10.6973 33.0677 10.064C33.8024 9.43068 34.7524 8.97468 35.9177 8.69601C37.1084 8.39201 38.375 8.24001 39.7177 8.24001V8.62001C38.8564 8.69601 38.1977 9.12668 37.7417 9.91201C37.311 10.672 37.0957 11.66 37.0957 12.876C37.0957 13.712 37.2097 14.6367 37.4377 15.65L37.2097 15.954ZM37.7797 28.38C36.6904 28.38 35.601 28.228 34.5117 27.924C33.4477 27.5947 32.561 27.05 31.8517 26.29C31.1677 25.53 30.8257 24.4913 30.8257 23.174C30.8257 20.742 32.1304 19.0193 34.7397 18.006C36.741 17.2207 39.3377 16.828 42.5297 16.828V17.208C41.9724 17.208 41.339 17.3727 40.6297 17.702C39.9204 18.006 39.2997 18.5127 38.7677 19.222C38.261 19.9313 38.0077 20.8813 38.0077 22.072C38.0077 23.5667 38.4257 24.6433 39.2617 25.302C40.0977 25.9607 41.0097 26.29 41.9977 26.29C42.7324 26.29 43.2644 26.1507 43.5937 25.872L43.7837 26.176C42.3144 27.6453 40.313 28.38 37.7797 28.38ZM54.8037 28H50.6997C46.9757 28 45.1137 26.024 45.1137 22.072V16.676C45.1137 13.6613 44.835 11.584 44.2777 10.444C43.7204 9.27868 42.859 8.67068 41.6937 8.62001V8.24001C44.911 8.24001 47.4697 8.93668 49.3697 10.33C51.295 11.7233 52.2577 13.8133 52.2577 16.6V18.12C52.2577 21.0333 52.4984 23.2753 52.9797 24.846C53.4864 26.3913 54.0944 27.3793 54.8037 27.81V28Z" fill="white"/>
<path d="M69.0409 16.372L68.8509 16.258C69.1549 13.902 69.8263 11.9767 70.8649 10.482C71.9036 8.98735 73.2716 8.24001 74.9689 8.24001C76.3369 8.24001 77.2996 8.75934 77.8569 9.79801C78.4143 10.8367 78.7309 12.2807 78.8069 14.13L78.5029 14.358C76.7043 14.358 74.9056 14.5227 73.1069 14.852C71.3083 15.156 69.9529 15.6627 69.0409 16.372ZM69.1929 28H56.9189V27.81C58.6416 26.6953 59.5029 23.592 59.5029 18.5C59.5029 13.408 58.6416 10.3047 56.9189 9.19001V9.00001C58.8189 9.00001 60.5163 8.96201 62.0109 8.88601C63.5056 8.81001 64.9749 8.59468 66.4189 8.24001H66.6469V18.88C66.6469 21.388 66.8876 23.3893 67.3689 24.884C67.8756 26.3787 68.4836 27.354 69.1929 27.81V28Z" fill="white"/>
<path d="M91.3 19.184L91.186 18.842C92.1234 18.2593 92.8074 17.3347 93.238 16.068C93.694 14.776 93.922 13.522 93.922 12.306C93.922 11.318 93.7827 10.482 93.504 9.79801C93.2507 9.08868 92.8707 8.69601 92.364 8.62001V8.24001C93.7574 8.24001 95.0367 8.44268 96.202 8.84801C97.3927 9.22801 98.3427 9.82335 99.052 10.634C99.7867 11.4193 100.154 12.4073 100.154 13.598C100.154 14.5353 99.8627 15.4347 99.28 16.296C98.7227 17.1573 97.798 17.854 96.506 18.386C95.214 18.918 93.4787 19.184 91.3 19.184ZM91.072 28.38C88.26 28.38 85.8787 27.4427 83.928 25.568C82.0027 23.6933 81.04 21.274 81.04 18.31C81.04 15.6247 81.876 13.3573 83.548 11.508C85.22 9.63335 87.424 8.58201 90.16 8.35401V8.69601C88.8934 9.60801 88.26 11.4953 88.26 14.358C88.26 17.3727 88.83 19.716 89.97 21.388C91.1354 23.0347 92.7947 23.858 94.948 23.858C95.8854 23.858 96.8354 23.706 97.798 23.402C98.786 23.098 99.5587 22.68 100.116 22.148L100.458 22.376C100.179 23.2627 99.6727 24.162 98.938 25.074C98.2287 25.986 97.228 26.7713 95.936 27.43C94.6694 28.0633 93.048 28.38 91.072 28.38Z" fill="white"/>
<path d="M115.246 28H102.972V27.81C104.694 26.6953 105.556 23.592 105.556 18.5C105.556 13.408 104.694 10.3047 102.972 9.19001V9.00001C104.872 9.00001 106.569 8.96201 108.064 8.88601C109.558 8.81001 111.028 8.59468 112.472 8.24001H112.7V18.88C112.7 21.388 112.94 23.3893 113.422 24.884C113.928 26.3787 114.536 27.354 115.246 27.81V28ZM129.534 28H117.298V27.81C118.007 27.354 118.602 26.3787 119.084 24.884C119.59 23.364 119.844 21.3627 119.844 18.88V18.12C119.844 14.928 119.514 12.648 118.856 11.28C118.197 9.91201 117.196 9.22801 115.854 9.22801C115.6 9.22801 115.36 9.24068 115.132 9.26601V8.88601C116.576 8.43001 117.931 8.20201 119.198 8.20201C120.616 8.20201 121.908 8.45535 123.074 8.96201C124.264 9.44335 125.214 10.1907 125.924 11.204C126.633 12.2173 126.988 13.4967 126.988 15.042V18.12C126.988 20.6027 127.228 22.718 127.71 24.466C128.216 26.214 128.824 27.3287 129.534 27.81V28Z" fill="white"/>
<path d="M158.732 28H152.908V27.72C154.289 26.992 155.335 26.0027 156.044 24.752C156.772 23.4827 157.136 22.092 157.136 20.58L157.388 20.412C158.303 20.7293 159.012 21.168 159.516 21.728C160.039 22.2693 160.393 22.848 160.58 23.464C160.785 24.0613 160.888 24.612 160.888 25.116C160.888 26.0307 160.664 26.74 160.216 27.244C159.768 27.748 159.273 28 158.732 28ZM150.836 28H141.708V27.86C142.417 27.4493 142.968 26.488 143.36 24.976C143.752 23.464 143.948 21.0187 143.948 17.64C143.948 12.432 143.201 9.39868 141.708 8.54001V8.40001H151.788V8.54001C150.295 9.39868 149.548 12.432 149.548 17.64V18.76C149.548 21.392 149.623 23.38 149.772 24.724C149.94 26.068 150.295 27.0667 150.836 27.72V28Z" fill="white"/>
<path d="M175.615 28.38V28C176.882 27.5947 177.515 25.2007 177.515 20.818C177.515 18.3607 177.275 15.9033 176.793 13.446C176.312 10.9887 175.565 9.44335 174.551 8.81001V8.43001C177.465 8.43001 179.884 9.36735 181.809 11.242C183.76 13.1167 184.735 15.5233 184.735 18.462C184.735 21.1473 183.899 23.4147 182.227 25.264C180.555 27.1133 178.351 28.152 175.615 28.38ZM173.297 28.38C170.384 28.38 167.952 27.4553 166.001 25.606C164.051 23.7313 163.075 21.312 163.075 18.348C163.075 15.6373 163.911 13.37 165.583 11.546C167.255 9.69668 169.459 8.65801 172.195 8.43001V8.81001C170.929 9.16468 170.295 11.5713 170.295 16.03C170.295 18.462 170.536 20.9067 171.017 23.364C171.499 25.8213 172.246 27.3667 173.259 28L173.297 28.38Z" fill="white"/>
</svg>
